<?xml version="1.0" encoding="utf-8"?>
<!-- Generator: Adobe Illustrator 23.0.3, SVG Export Plug-In . SVG Version: 6.00 Build 0)  -->
<svg version="1.1" id="Capa_1" xmlns="http://www.w3.org/2000/svg" xmlns:xlink="http://www.w3.org/1999/xlink" x="0px" y="0px"
	 viewBox="0 0 512 512" style="enable-background:new 0 0 512 512;" xml:space="preserve">
<style type="text/css">
	.st0{stroke:#000000;stroke-width:3;stroke-miterlimit:10;}
</style>
<g>
	<path class="st0" d="M511.8,179.8c-0.6-2.6-2.4-4.7-5-5.5l-171.4-57.1c-3.9-1.3-8.2,0.8-9.5,4.7c-1.3,3.9,0.8,8.2,4.7,9.5
		l143.1,47.7L291,211L51.7,38.4l247,82.3c3.9,1.3,8.2-0.8,9.5-4.7s-0.8-8.2-4.7-9.5L9.9,8.7c-0.1,0-0.2,0-0.3-0.1
		C7.5,8,5.1,8.3,3.2,9.6c-2.9,2.1-4,5.9-2.6,9.2l198.8,447.3c1,2.2,3,3.8,5.4,4.3c0.5,0.1,1,0.1,1.5,0.1c1.9,0,3.8-0.7,5.2-2.1
		l83-78.7l73.5,46.5h0.1c1.2,0.7,2.5,1.1,3.9,1.1c0.3,0,0.6,0,0.8,0c3.5-0.4,6.2-3.1,6.6-6.6l16.2-136.6l114-107.3
		C511.6,185.1,512.4,182.4,511.8,179.8L511.8,179.8z M481.2,193.1l-93.3,87.8L308,223.2L481.2,193.1z M328,337.3L219.5,440.2
		l40.7-168.7L328,337.3z M335.6,350.7l21.9,61.3l-51.9-32.8L335.6,350.7z M368.3,397.4l-22.4-62.6c0,0,0-0.1-0.1-0.1
		c-0.4-1-1-2-1.8-2.7L233,224.3c-3-2.9-7.7-2.8-10.6,0.2c-2.9,3-2.8,7.7,0.2,10.6l25.1,24.3l-43.5,180.5L30.1,48.2l171,165.9
		c3,2.9,7.7,2.8,10.6-0.2s2.8-7.7-0.2-10.6L86.5,82l294.1,212.1L368.3,397.4z"/>
	<path class="st0" d="M487.9,387.7c-1.9,0-3.8-0.7-5.3-2.2l-66.3-66.3c-2.9-2.9-2.9-7.7,0-10.6s7.7-2.9,10.6,0l66.3,66.3
		c2.9,2.9,2.9,7.7,0,10.6C491.8,387,489.9,387.7,487.9,387.7L487.9,387.7z"/>
	<path class="st0" d="M372,503.7c-1.9,0-3.8-0.7-5.3-2.2l-66.3-66.3c-2.9-2.9-2.9-7.7,0-10.6s7.7-2.9,10.6,0l66.3,66.3
		c2.9,2.9,2.9,7.7,0,10.6C375.8,503,373.9,503.7,372,503.7L372,503.7z"/>
	<path class="st0" d="M487.9,503.7c-1.9,0-3.8-0.7-5.3-2.2l-66.3-66.3c-2.9-2.9-2.9-7.7,0-10.6s7.7-2.9,10.6,0l66.3,66.3
		c2.9,2.9,2.9,7.7,0,10.6C491.8,503,489.9,503.7,487.9,503.7L487.9,503.7z"/>
</g>
</svg>
